<?xml version="1.0" standalone="no"?>
<!DOCTYPE svg PUBLIC "-//W3C//DTD SVG 20010904//EN"
 "http://www.w3.org/TR/2001/REC-SVG-20010904/DTD/svg10.dtd">
<svg version="1.0" xmlns="http://www.w3.org/2000/svg"
 width="1024.000000pt" height="1024.000000pt" viewBox="0 0 1024.000000 1024.000000"
 preserveAspectRatio="xMidYMid meet">

  <defs>
    <linearGradient id="animatedGradient" x1="0%" y1="0%" x2="100%" y2="0%">
      <stop offset="0%" stop-color="#2A8C82">
        <animate attributeName="stop-color" values="#2A8C82;#33B49F;#1E665C;#2A8C82" dur="8s" repeatCount="indefinite"/>
      </stop>
      <stop offset="100%" stop-color="#33B49F">
        <animate attributeName="stop-color" values="#33B49F;#1E665C;#2A8C82;#33B49F" dur="8s" repeatCount="indefinite"/>
      </stop>
    </linearGradient>
  </defs>


<g transform="translate(0.000000,1024.000000) scale(0.100000,-0.100000)"
fill="url(#animatedGradient)" stroke="none">
<path d="M4535 9927 c-75 -19 -173 -68 -233 -116 -61 -48 -134 -143 -169 -217
l-23 -52 -61 25 c-236 95 -510 55 -706 -104 -93 -75 -146 -140 -196 -240 -35
-68 -67 -186 -67 -244 l0 -46 -62 -6 c-78 -7 -192 -45 -266 -89 -92 -53 -194
-165 -242 -261 -51 -105 -70 -181 -70 -283 0 -87 28 -216 58 -267 l17 -30 -86
-87 c-70 -69 -94 -102 -127 -170 -57 -119 -66 -159 -66 -290 0 -99 4 -126 27
-193 31 -90 78 -168 142 -236 l45 -48 -19 -39 c-80 -167 -39 -441 87 -585 l39
-44 7 -165 c10 -246 38 -424 96 -612 93 -302 257 -506 446 -557 35 -9 43 -16
48 -42 15 -75 94 -278 170 -434 89 -184 179 -335 281 -475 l65 -88 0 -148 c0
-276 -27 -467 -80 -582 -49 -104 -168 -215 -307 -285 -104 -53 -318 -133 -703
-262 -217 -73 -449 -154 -515 -180 -357 -140 -688 -349 -876 -553 -120 -131
-225 -304 -278 -461 -77 -226 -131 -589 -131 -886 0 -123 21 -176 86 -212 l39
-23 4213 0 c3516 0 4218 2 4245 14 50 20 95 78 103 132 14 94 -21 477 -62 684
-69 346 -189 577 -418 805 -181 180 -371 306 -651 430 -186 83 -299 124 -755
275 -543 180 -702 252 -820 370 -75 75 -123 173 -149 305 -20 98 -41 359 -41
502 l0 72 62 85 c164 224 329 534 413 776 64 184 62 180 83 180 35 0 138 60
200 116 210 190 339 571 359 1059 l6 160 33 38 c48 57 101 165 120 243 21 92
14 246 -15 328 l-21 59 60 63 c137 148 192 367 140 568 -34 134 -119 269 -220
350 -21 17 -37 36 -35 41 2 6 15 37 29 70 93 225 38 493 -138 668 -116 115
-248 180 -397 193 l-69 7 0 37 c0 55 -35 181 -70 252 -68 136 -182 248 -325
319 -120 59 -189 74 -330 73 -108 0 -129 -3 -214 -32 -52 -18 -95 -31 -96 -30
-1 2 -12 25 -25 51 -53 113 -159 219 -275 276 -222 109 -502 66 -670 -103
l-50 -51 -45 44 c-112 110 -233 161 -390 167 -65 2 -124 -1 -155 -9z m688
-2296 c48 -46 144 -104 216 -133 48 -19 75 -22 196 -23 154 0 220 15 316 74
l45 28 34 -61 c47 -86 159 -194 248 -239 106 -53 202 -71 331 -63 58 3 119 9
135 12 24 6 27 4 22 -12 -12 -40 -26 -204 -26 -309 0 -159 17 -319 51 -490 41
-200 63 -254 112 -278 47 -24 82 -16 116 25 98 118 158 158 240 158 44 0 68
-14 87 -53 14 -27 16 -53 11 -172 -10 -231 -64 -466 -145 -633 -61 -125 -114
-172 -245 -217 -56 -20 -102 -56 -123 -98 -9 -16 -33 -82 -54 -146 -84 -259
-219 -525 -368 -723 -207 -277 -399 -442 -655 -563 -214 -101 -355 -134 -603
-142 -182 -6 -287 5 -453 48 -372 97 -732 391 -992 810 -76 122 -200 384 -254
534 -25 72 -53 147 -62 168 -23 52 -82 103 -141 121 -74 21 -106 41 -149 90
-112 127 -199 410 -223 728 -14 193 10 248 108 248 76 0 142 -37 201 -113 74
-94 127 -108 185 -48 48 50 108 338 126 607 11 158 1 360 -20 434 -9 31 -9 32
18 26 15 -3 74 -9 132 -12 202 -12 349 43 485 180 44 44 91 103 103 129 13 26
27 47 30 45 4 -2 30 -15 59 -30 84 -45 185 -68 293 -68 181 0 301 50 430 181
l85 86 30 -36 c17 -19 47 -51 68 -70z m1067 -4288 c26 -199 89 -377 182 -513
l58 -85 -67 -63 c-200 -190 -592 -379 -914 -441 -664 -128 -1320 39 -1783 453
l-50 44 53 76 c130 188 191 394 207 694 4 67 9 122 10 122 2 0 34 -22 71 -49
97 -70 230 -141 363 -194 409 -163 859 -180 1275 -47 184 59 386 160 525 263
l45 34 7 -105 c3 -58 12 -143 18 -189z m-2500 -1073 c377 -251 828 -380 1330
-380 662 0 1276 239 1644 642 l69 75 38 -19 c72 -35 276 -106 634 -223 587
-192 805 -284 1040 -440 134 -89 285 -231 353 -331 98 -146 167 -325 201 -524
21 -121 41 -295 41 -361 l0 -39 -4020 0 -4020 0 0 29 c0 16 5 75 10 132 48
473 133 692 354 915 104 104 185 164 341 252 179 100 389 182 990 385 458 155
497 169 564 199 l54 24 126 -127 c94 -94 157 -146 251 -209z"/>
</g>
</svg>
